<?xml version="1.0" encoding="UTF-8"?>
<svg id="Layer_2" data-name="Layer 2" xmlns="http://www.w3.org/2000/svg" xmlns:xlink="http://www.w3.org/1999/xlink" viewBox="0 0 1521.51 1521.51">
  <defs>
    <style>
      .cls-1 {
        fill: #fff;
      }

      .cls-2 {
        fill: url(#linear-gradient);
        opacity: .5;
      }

      .cls-3 {
        fill: url(#radial-gradient);
      }

      .cls-4 {
        fill: #5bbc72;
      }
    </style>
    <radialGradient id="radial-gradient" cx="431.72" cy="431.31" fx="431.72" fy="431.31" r="1574.13" gradientUnits="userSpaceOnUse">
      <stop offset=".13" stop-color="#5bbc72"/>
      <stop offset=".96" stop-color="#219300"/>
    </radialGradient>
    <linearGradient id="linear-gradient" x1="760.9" y1="1496.03" x2="760.9" y2="119.62" gradientTransform="translate(-.15 .15)" gradientUnits="userSpaceOnUse">
      <stop offset="0" stop-color="#3ace01" stop-opacity="0"/>
      <stop offset=".61" stop-color="#5abd6f" stop-opacity=".81"/>
      <stop offset=".83" stop-color="#5bbc72"/>
    </linearGradient>
  </defs>
  <g id="Layer_1-2" data-name="Layer 1">
    <path class="cls-3" d="m254.09,0h1013.33c140.23,0,254.09,113.85,254.09,254.09v1013.34c0,140.23-113.85,254.09-254.09,254.09H254.09c-140.23,0-254.09-113.85-254.09-254.09V254.09C0,113.85,113.85,0,254.09,0Z"/>
    <path class="cls-2" d="m433.68,1456.92c-203.52,0-369.1-165.57-369.1-369.08V271.82c0-114.45,92.78-207.24,207.24-207.24h977.87c114.45,0,207.23,92.78,207.23,207.23v977.89c0,114.45-92.78,207.22-207.22,207.22H433.68Z"/>
    <g>
      <path class="cls-4" d="m542.9,872.72c-.33-.13-.66-.29-.99-.48l-.28-.16c-.63-.39-1.27-.85-1.91-1.43-.13-.11-.25-.23-.39-.35-.35-.32-.69-.68-1.03-1.06-.15-.16-.29-.32-.43-.49-.15-.17-.3-.34-.45-.52-.02-.02-.04-.05-.06-.08-.03-.04-.05-.07-.08-.11-.59-.72-1.19-1.53-1.79-2.41,0,0,.02.02.02.02.32.29,3,2.8,7.39,7.05Z"/>
      <path class="cls-4" d="m535.51,865.67c.32.29,3,2.8,7.39,7.05-.33-.13-.66-.29-.99-.48l-.28-.16c-.63-.39-1.27-.85-1.91-1.43-.13-.11-.25-.23-.39-.35-.35-.32-.69-.68-1.03-1.06-.15-.16-.29-.32-.43-.49-.15-.17-.3-.34-.45-.52-.02-.02-.04-.05-.06-.08-.03-.04-.05-.07-.08-.11-.59-.72-1.19-1.53-1.79-2.41,0,0,.02.02.02.02Z"/>
    </g>
    <path class="cls-4" d="m520.37,919.98s2.93,2.71,7.92,7.55c-2.56-1.03-5.15-3.53-7.92-7.55Z"/>
    <g>
      <path class="cls-1" d="m1185.66,583.24c-105.23,0-207.75-.01-310.27.02-10.34,0-17.3,4.78-23.67,13.43-18.61,27.71-37.46,55.27-55.74,83.21-8.25,12.6-16.3,25.42-23.29,40.99-.29.65.19,1.4.9,1.4h231.64c.79,0,1.26.9.81,1.55-7.41,10.75-14.25,19.87-20.09,29.6-11.44,19.07-21.52,38.99-33.48,57.71-20.24,31.65-49.26,48.39-87.37,49.92-36.53,1.47-72.08-7.12-108.3-8.8-36.46-1.69-66.19,9.05-87.91,39.55-15.65,21.97-24.72,47.62-39.09,69.98-17.32,26.92-15.13,49.88,2.54,75.12,37.12,53.01,72.07,107.49,106.34,162.4,19.96,31.98,25.29,31.99,45.91.47,114.82-175.57,229.67-351.13,344.48-526.71,18.8-28.75,37.46-57.6,57.42-88.31.43-.66-.04-1.53-.83-1.53Z"/>
      <path class="cls-1" d="m135.81,298.15l61.73,106.91c25.07,32.96,58.46,49.19,99.73,49.41v.09h265.22c.1,1.53-.68,3.48-1.1,5.2-2.85,11.77-9.05,21.99-15.02,32.37-39.23,68.24-78.31,136.56-117.47,204.83-11.9,20.75-10.84,40.45,3.11,60.12,13.1,18.48,25.33,37.59,37.72,56.57,9.91,15.18,19.07,30.87,29.36,45.78.34.5.68.97,1.02,1.42.08.11.17.22.25.33.28.37.56.72.83,1.06.06.08.13.16.19.24.31.38.62.73.93,1.07.1.11.21.22.31.33.24.26.48.5.72.74.08.08.17.17.25.25.31.29.62.57.93.82.08.06.15.12.23.18.26.21.52.41.78.59.07.05.14.1.2.14.32.22.65.42.97.59.03.02.06.03.08.04.31.16.61.31.92.43.02,0,.05.02.07.03,4.94,2,9.75-.99,15.29-8.71,1.35-1.88,2.57-3.85,3.7-5.87,64.73-114.99,133.89-227.46,195.82-344.03,23.17-43.62,58.83-63.84,107.92-61.46,55.57,2.7,111.18,4.41,166.82,4.95,86.61.84,173.17-1.58,259.75-2.97,25.44-.41,44.81-10.33,59.19-31.8.84-1.25,1.66-2.5,2.49-3.75l66.94-115.94H135.81Z"/>
    </g>
  </g>
</svg>